<svg width="52" height="52" viewBox="0 0 52 52" fill="none" xmlns="http://www.w3.org/2000/svg">
<circle cx="26" cy="26" r="25.5" stroke="white" stroke-opacity="0.2"/>
<path d="M18 26C18 24.5493 18.3573 23.2107 19.072 21.984C19.7867 20.7573 20.7573 19.7867 21.984 19.072C23.2107 18.3573 24.5493 18 26 18C27.4507 18 28.7893 18.3573 30.016 19.072C31.2427 19.7867 32.2133 20.7573 32.928 21.984C33.6427 23.2107 34 24.5493 34 26C34 27.4507 33.6427 28.7893 32.928 30.016C32.2133 31.2427 31.2427 32.2133 30.016 32.928C28.7893 33.6427 27.4507 34 26 34C24.5493 34 23.2107 33.6427 21.984 32.928C20.7573 32.2133 19.7867 31.2427 19.072 30.016C18.3573 28.7893 18 27.4507 18 26ZM19.328 26C19.328 27.664 19.888 29.1307 21.008 30.4C21.52 29.3973 22.3307 28.4427 23.44 27.536C24.5493 26.6293 25.632 26.0587 26.688 25.824C26.528 25.4507 26.3733 25.1147 26.224 24.816C24.3893 25.4027 22.4053 25.696 20.272 25.696C19.856 25.696 19.5467 25.6907 19.344 25.68C19.344 25.7227 19.3413 25.776 19.336 25.84C19.3307 25.904 19.328 25.9573 19.328 26ZM19.536 24.352C19.7707 24.3733 20.1173 24.384 20.576 24.384C22.3573 24.384 24.048 24.144 25.648 23.664C24.8373 22.224 23.9467 21.024 22.976 20.064C22.1333 20.4907 21.4107 21.0827 20.808 21.84C20.2053 22.5973 19.7813 23.4347 19.536 24.352ZM21.92 31.264C23.1253 32.2027 24.4853 32.672 26 32.672C26.7893 32.672 27.5733 32.5227 28.352 32.224C28.1387 30.4 27.7227 28.6347 27.104 26.928C26.1227 27.1413 25.1333 27.68 24.136 28.544C23.1387 29.408 22.4 30.3147 21.92 31.264ZM24.368 19.552C25.3067 20.5227 26.176 21.7333 26.976 23.184C28.4267 22.576 29.52 21.8027 30.256 20.864C29.0187 19.84 27.6 19.328 26 19.328C25.456 19.328 24.912 19.4027 24.368 19.552ZM27.552 24.32C27.712 24.6613 27.8933 25.0933 28.096 25.616C28.8853 25.5413 29.744 25.504 30.672 25.504C31.3333 25.504 31.9893 25.52 32.64 25.552C32.5547 24.1013 32.032 22.8107 31.072 21.68C30.3787 22.7147 29.2053 23.5947 27.552 24.32ZM28.496 26.736C29.04 28.3147 29.408 29.936 29.6 31.6C30.4427 31.056 31.1307 30.3573 31.664 29.504C32.1973 28.6507 32.5173 27.728 32.624 26.736C31.8453 26.6827 31.136 26.656 30.496 26.656C29.9093 26.656 29.2427 26.6827 28.496 26.736Z" fill="white"/>
</svg>
