<svg width="52" height="52" viewBox="0 0 52 52" fill="none" xmlns="http://www.w3.org/2000/svg">
<circle cx="26" cy="26" r="25.5" stroke="white" stroke-opacity="0.2"/>
<mask id="mask0_72_3" style="mask-type:alpha" maskUnits="userSpaceOnUse" x="18" y="17" width="16" height="16">
<path fill-rule="evenodd" clip-rule="evenodd" d="M18 17.0317H33.9949V32.9635H18V17.0317Z" fill="white"/>
</mask>
<g mask="url(#mask0_72_3)">
<path fill-rule="evenodd" clip-rule="evenodd" d="M25.9975 17.0317C23.8255 17.0317 23.5531 17.0409 22.7001 17.0797C21.8489 17.1183 21.2675 17.253 20.7588 17.45C20.2329 17.6535 19.7869 17.9259 19.3423 18.3687C18.8977 18.8116 18.6242 19.2558 18.4198 19.7796C18.2221 20.2863 18.087 20.8654 18.0481 21.7133C18.0092 22.5629 18 22.8342 18 24.9976C18 27.161 18.0092 27.4323 18.0481 28.2819C18.087 29.1298 18.2221 29.7089 18.4198 30.2155C18.6242 30.7393 18.8977 31.1836 19.3423 31.6265C19.7869 32.0693 20.2329 32.3417 20.7588 32.5453C21.2675 32.7422 21.8489 32.8769 22.7001 32.9156C23.5531 32.9543 23.8255 32.9635 25.9975 32.9635C28.1695 32.9635 28.4418 32.9543 29.2948 32.9156C30.1461 32.8769 30.7274 32.7422 31.2361 32.5453C31.762 32.3417 32.208 32.0693 32.6526 31.6265C33.0973 31.1836 33.3707 30.7394 33.5751 30.2155C33.7728 29.7089 33.908 29.1298 33.9468 28.2819C33.9857 27.4323 33.995 27.161 33.995 24.9976C33.995 22.8342 33.9857 22.5629 33.9468 21.7133C33.908 20.8654 33.7728 20.2863 33.5751 19.7796C33.3707 19.2558 33.0973 18.8116 32.6526 18.3687C32.208 17.9259 31.762 17.6535 31.2361 17.45C30.7274 17.253 30.1461 17.1183 29.2948 17.0797C28.4418 17.0409 28.1695 17.0317 25.9975 17.0317ZM25.9975 18.467C28.1329 18.467 28.3858 18.4751 29.2291 18.5134C30.0089 18.5489 30.4323 18.6787 30.7141 18.7878C31.0874 18.9323 31.3539 19.1049 31.6337 19.3836C31.9136 19.6624 32.0869 19.9277 32.232 20.2996C32.3415 20.5803 32.4717 21.002 32.5073 21.7787C32.5458 22.6187 32.5539 22.8706 32.5539 24.9976C32.5539 27.1246 32.5458 27.3765 32.5073 28.2165C32.4717 28.9932 32.3415 29.4149 32.232 29.6956C32.0869 30.0674 31.9136 30.3328 31.6337 30.6116C31.3539 30.8903 31.0874 31.0629 30.7141 31.2075C30.4323 31.3165 30.0089 31.4463 29.2291 31.4817C28.3859 31.5201 28.133 31.5282 25.9975 31.5282C23.8619 31.5282 23.609 31.5201 22.7658 31.4817C21.9861 31.4463 21.5626 31.3165 21.2808 31.2075C20.9075 31.0629 20.641 30.8903 20.3612 30.6116C20.0814 30.3328 19.908 30.0674 19.763 29.6956C19.6535 29.4149 19.5232 28.9932 19.4876 28.2165C19.4491 27.3765 19.441 27.1246 19.441 24.9976C19.441 22.8706 19.4491 22.6187 19.4876 21.7787C19.5232 21.002 19.6535 20.5803 19.763 20.2996C19.908 19.9277 20.0814 19.6624 20.3612 19.3836C20.641 19.1049 20.9075 18.9323 21.2808 18.7878C21.5626 18.6787 21.9861 18.5489 22.7658 18.5134C23.6091 18.4751 23.862 18.467 25.9975 18.467Z" fill="white"/>
</g>
<path fill-rule="evenodd" clip-rule="evenodd" d="M25.9975 27.6528C24.5252 27.6528 23.3316 26.464 23.3316 24.9975C23.3316 23.5311 24.5252 22.3423 25.9975 22.3423C27.4697 22.3423 28.6633 23.5311 28.6633 24.9975C28.6633 26.464 27.4697 27.6528 25.9975 27.6528ZM25.9975 20.907C23.7293 20.907 21.8906 22.7384 21.8906 24.9975C21.8906 27.2567 23.7293 29.0881 25.9975 29.0881C28.2656 29.0881 30.1042 27.2567 30.1042 24.9975C30.1042 22.7384 28.2656 20.907 25.9975 20.907Z" fill="white"/>
<path fill-rule="evenodd" clip-rule="evenodd" d="M31.2263 20.7454C31.2263 21.2734 30.7966 21.7013 30.2666 21.7013C29.7366 21.7013 29.3069 21.2734 29.3069 20.7454C29.3069 20.2175 29.7366 19.7896 30.2666 19.7896C30.7966 19.7896 31.2263 20.2175 31.2263 20.7454Z" fill="white"/>
</svg>
