<svg width="52" height="52" viewBox="0 0 52 52" fill="none" xmlns="http://www.w3.org/2000/svg">
<circle cx="26" cy="26" r="25.5" stroke="white" stroke-opacity="0.2"/>
<g clip-path="url(#clip0_64_50)">
<path d="M23.1474 25.1531C23.1474 25.1531 25.5264 24.9757 25.5264 22.1721C25.5264 19.3683 23.5801 18 21.1147 18H13.0022V33.6679H21.1147C21.1147 33.6679 26.0671 33.8251 26.0671 29.0435C26.0671 29.0435 26.2831 25.1531 23.1474 25.1531V25.1531ZM20.5308 20.7848H21.1147C21.1147 20.7848 22.2175 20.7848 22.2175 22.415C22.2175 24.0449 21.5689 24.2813 20.8333 24.2813H16.5767V20.7848H20.5308V20.7848ZM20.8855 30.8832H16.5767V26.6962H21.1147C21.1147 26.6962 22.7583 26.6745 22.7583 28.8479C22.7583 30.6805 21.5307 30.8694 20.8855 30.8832V30.8832ZM32.672 21.9864C26.6766 21.9864 26.6819 28.0065 26.6819 28.0065C26.6819 28.0065 26.2706 33.9956 32.672 33.9956C32.672 33.9956 38.0065 34.3019 38.0065 29.8293H35.2631C35.2631 29.8293 35.3546 31.5136 32.7635 31.5136C32.7635 31.5136 30.0196 31.6984 30.0196 28.7878H38.098C38.098 28.7877 38.9819 21.9864 32.672 21.9864ZM29.9895 26.6962C29.9895 26.6962 30.3245 24.2812 32.733 24.2812C35.141 24.2812 35.1108 26.6962 35.1108 26.6962H29.9895ZM35.7499 20.8524H29.3178V18.923H35.7499V20.8524Z" fill="white"/>
</g>
<defs>
<clipPath id="clip0_64_50">
<rect width="25.1429" height="16" fill="white" transform="translate(13 18)"/>
</clipPath>
</defs>
</svg>
