<svg width="52" height="52" viewBox="0 0 52 52" fill="none" xmlns="http://www.w3.org/2000/svg">
<circle cx="26" cy="26" r="25.5" stroke="white" stroke-opacity="0.2"/>
<path d="M32.875 17H20.125C18.9514 17 18 17.9514 18 19.125V31.875C18 33.0486 18.9514 34 20.125 34H26.5V28.1562H24.375V25.5H26.5V23.375C26.5 21.6146 27.9271 20.1875 29.6875 20.1875H31.8125V22.8438H30.75C30.1635 22.8438 29.6875 22.7885 29.6875 23.375V25.5H32.3438L31.2812 28.1562H29.6875V34H32.875C34.0486 34 35 33.0486 35 31.875V19.125C35 17.9514 34.0486 17 32.875 17Z" fill="white"/>
</svg>
