<svg id="Layer_1" data-name="Layer 1" xmlns="http://www.w3.org/2000/svg" viewBox="0 0 866 277"><defs><style>.cls-1{fill:#fff;}</style></defs><title>Lock-up wide (white)</title><path class="cls-1" d="M50,226.49V50h56.73A47.21,47.21,0,0,1,154,97.27c0,23.32-19.22,47.27-47.27,47.27l58,81.94Z"/><path class="cls-1" d="M173.54,50l65.55,176.49h6.3a88.1,88.1,0,0,0,88.24-88.24c0-49.79-41-88.24-88.24-88.24Z"/><path class="cls-1" d="M441.59,121.87,427,97.6h-5.47v24.27H409.12V59.57h23.74q10.85,0,16.55,5.29t5.69,13.94a18,18,0,0,1-3.93,11.82Q447.24,95.4,439.82,97l15.53,24.88ZM421.56,89h10.24q10.68,0,10.68-9.44a9.3,9.3,0,0,0-2.6-7q-2.6-2.52-8.07-2.52H421.56Z"/><path class="cls-1" d="M493.21,75.28a15.87,15.87,0,0,1,6.26,7.85V73h12.35v48.89H499.48V111.63a16.08,16.08,0,0,1-6.26,7.9,18.58,18.58,0,0,1-10.59,3,21,21,0,0,1-11.12-3,20.25,20.25,0,0,1-7.72-8.69A30.15,30.15,0,0,1,461,97.43a30.15,30.15,0,0,1,2.78-13.37,20.26,20.26,0,0,1,7.72-8.69,21,21,0,0,1,11.12-3A18.79,18.79,0,0,1,493.21,75.28ZM477.15,87q-3.53,3.8-3.53,10.41t3.53,10.37a13.37,13.37,0,0,0,18.66-.09q3.66-3.84,3.66-10.28t-3.66-10.37a12.31,12.31,0,0,0-9.31-3.84A12.17,12.17,0,0,0,477.15,87Z"/><path class="cls-1" d="M552.82,75.28a16.45,16.45,0,0,1,6.31,7.85V56.57h12.35v65.3H559.13V111.63a16.68,16.68,0,0,1-6.31,7.9,18.36,18.36,0,0,1-10.54,3,21,21,0,0,1-11.12-3,20.26,20.26,0,0,1-7.72-8.69,30.15,30.15,0,0,1-2.78-13.37,30.15,30.15,0,0,1,2.78-13.37,20.27,20.27,0,0,1,7.72-8.69,21,21,0,0,1,11.12-3A18.57,18.57,0,0,1,552.82,75.28ZM536.8,87q-3.53,3.8-3.53,10.41t3.53,10.37a13.37,13.37,0,0,0,18.66-.09q3.66-3.84,3.66-10.28t-3.66-10.37a12.31,12.31,0,0,0-9.31-3.84A12.17,12.17,0,0,0,536.8,87Z"/><path class="cls-1" d="M583.48,54.06a9.09,9.09,0,0,1,11.12,0,6.27,6.27,0,0,1,2.12,4.9,6.17,6.17,0,0,1-2.12,4.81,9.09,9.09,0,0,1-11.12,0A6.18,6.18,0,0,1,581.37,59,6.28,6.28,0,0,1,583.48,54.06ZM595.22,73v48.89H582.78V73Z"/><path class="cls-1" d="M644.24,77.49a22.37,22.37,0,0,1,7.9,13.94H639a10.16,10.16,0,0,0-3.62-6.13A11.12,11.12,0,0,0,628.22,83,10.66,10.66,0,0,0,620,86.71q-3.31,3.66-3.31,10.72T620,108.15a10.66,10.66,0,0,0,8.25,3.66,11.12,11.12,0,0,0,7.15-2.25,10.15,10.15,0,0,0,3.62-6.13h13.15a22.36,22.36,0,0,1-7.9,13.94q-6.31,5.12-15.75,5.12a26,26,0,0,1-12.71-3,21.39,21.39,0,0,1-8.65-8.69A27.34,27.34,0,0,1,604,97.43a27.6,27.6,0,0,1,3.09-13.37,21,21,0,0,1,8.65-8.69,26.34,26.34,0,0,1,12.71-3Q637.93,72.37,644.24,77.49Z"/><path class="cls-1" d="M690.7,75.28A15.86,15.86,0,0,1,697,83.13V73h12.35v48.89H697V111.63a16.08,16.08,0,0,1-6.27,7.9,18.57,18.57,0,0,1-10.59,3,21,21,0,0,1-11.12-3,20.25,20.25,0,0,1-7.72-8.69,30.13,30.13,0,0,1-2.78-13.37,30.13,30.13,0,0,1,2.78-13.37A20.26,20.26,0,0,1,669,75.37a21,21,0,0,1,11.12-3A18.79,18.79,0,0,1,690.7,75.28ZM674.64,87q-3.53,3.8-3.53,10.41t3.53,10.37a13.37,13.37,0,0,0,18.66-.09Q697,103.87,697,97.43T693.3,87.06A12.31,12.31,0,0,0,684,83.22,12.17,12.17,0,0,0,674.64,87Z"/><path class="cls-1" d="M733.05,56.57v65.3H720.61V56.57Z"/><path class="cls-1" d="M756.79,56.57v65.3H744.35V56.57Z"/><path class="cls-1" d="M776.47,73l13.32,33.18L802.15,73h13.68l-29.91,72.18H772.14l11-24.71L762.61,73Z"/><path class="cls-1" d="M460,211.08a27,27,0,0,1-11.25,11A36.74,36.74,0,0,1,431.27,226H409.12V163.7h22.15a37.46,37.46,0,0,1,17.52,3.84A26.56,26.56,0,0,1,460,178.39a36.36,36.36,0,0,1,0,32.69Zm-14.25-1.5q5.51-5.29,5.52-14.82t-5.52-14.91q-5.52-5.29-15.58-5.29h-8.65v40.33h8.65Q440.27,214.88,445.78,209.58Z"/><path class="cls-1" d="M474,158.18a9.09,9.09,0,0,1,11.12,0,6.28,6.28,0,0,1,2.12,4.9,6.18,6.18,0,0,1-2.12,4.81,9.09,9.09,0,0,1-11.12,0,6.18,6.18,0,0,1-2.12-4.81A6.28,6.28,0,0,1,474,158.18Zm11.74,18.93V226H473.27V177.11Z"/><path class="cls-1" d="M526.74,179.41a15.87,15.87,0,0,1,6.26,7.85V177.11h12.35v49.06a27.14,27.14,0,0,1-2.69,12.22,19.85,19.85,0,0,1-8,8.52A25.42,25.42,0,0,1,521.71,250q-10.59,0-17.12-5a20.8,20.8,0,0,1-7.94-13.68h12.27a10.12,10.12,0,0,0,4.1,5.78,13.59,13.59,0,0,0,7.81,2.07,12.21,12.21,0,0,0,8.82-3.22q3.35-3.22,3.35-9.75V215.76a16.08,16.08,0,0,1-6.26,7.9,18.58,18.58,0,0,1-10.59,3,21,21,0,0,1-11.12-3,20.25,20.25,0,0,1-7.72-8.69,33.54,33.54,0,0,1,0-26.74,20.26,20.26,0,0,1,7.72-8.69,21,21,0,0,1,11.12-3A18.79,18.79,0,0,1,526.74,179.41Zm-16.06,11.74q-3.53,3.8-3.53,10.41t3.53,10.37a13.37,13.37,0,0,0,18.66-.09Q533,208,533,201.55t-3.66-10.37a12.31,12.31,0,0,0-9.31-3.84A12.17,12.17,0,0,0,510.68,191.14Z"/><path class="cls-1" d="M557.36,158.18a9.09,9.09,0,0,1,11.12,0,6.27,6.27,0,0,1,2.12,4.9,6.17,6.17,0,0,1-2.12,4.81,9.09,9.09,0,0,1-11.12,0,6.18,6.18,0,0,1-2.12-4.81A6.28,6.28,0,0,1,557.36,158.18Zm11.74,18.93V226H556.66V177.11Z"/><path class="cls-1" d="M606.51,215.32V226H600q-8.21,0-12.57-4T583,208.79V187.61h-6.8v-10.5H583V165h12.44v12.09h10.94v10.5H595.48V209q0,3.53,1.41,4.94t4.77,1.41Z"/><path class="cls-1" d="M645.16,179.41a15.86,15.86,0,0,1,6.27,7.85V177.11h12.35V226H651.43V215.76a16.08,16.08,0,0,1-6.27,7.9,18.57,18.57,0,0,1-10.59,3,21,21,0,0,1-11.12-3,20.26,20.26,0,0,1-7.72-8.69,33.54,33.54,0,0,1,0-26.74,20.27,20.27,0,0,1,7.72-8.69,21,21,0,0,1,11.12-3A18.79,18.79,0,0,1,645.16,179.41ZM629.1,191.14q-3.53,3.8-3.53,10.41t3.53,10.37a13.37,13.37,0,0,0,18.66-.09q3.66-3.84,3.66-10.28t-3.66-10.37a12.31,12.31,0,0,0-9.31-3.84A12.17,12.17,0,0,0,629.1,191.14Z"/><path class="cls-1" d="M687.52,160.7V226H675.08V160.7Z"/></svg>