<svg width="52" height="52" viewBox="0 0 52 52" fill="none" xmlns="http://www.w3.org/2000/svg">
<path fill-rule="evenodd" clip-rule="evenodd" d="M19.8703 19.9224C20.9155 19.9224 21.7682 19.0476 21.7682 17.9753C21.7682 16.903 20.9155 16 19.8703 16C18.8251 16 18 16.903 18 17.9753C18 19.0476 18.8251 19.9224 19.8703 19.9224ZM25.9764 32V25.0018C25.9764 25.0018 27.2417 23.7319 28.4519 24.4374C28.6994 24.522 28.9745 25.03 28.9745 25.3404V32H32V25.3404C32 23.9295 31.1749 22.4056 29.9371 21.7002C28.7819 21.0794 27.1591 20.9665 25.9764 21.5873V21.0794H22.8959V32H25.9764ZM21.4106 21.0794V32H18.3301V21.0794H21.4106Z" fill="white"/>
<circle cx="26" cy="26" r="25.5" stroke="white" stroke-opacity="0.2"/>
</svg>
